<?xml version="1.0" encoding="UTF-8" standalone="no"?>
<!DOCTYPE svg PUBLIC "-//W3C//DTD SVG 1.1//EN"
 "http://www.w3.org/Graphics/SVG/1.1/DTD/svg11.dtd">
<!-- Generated by graphviz version 13.1.2 (20250808.2320)
 -->
<!-- Pages: 1 -->
<svg width="6888pt" height="575pt"
 viewBox="0.00 0.00 6888.00 575.00" xmlns="http://www.w3.org/2000/svg" xmlns:xlink="http://www.w3.org/1999/xlink">
<g id="graph0" class="graph" transform="scale(1 1) rotate(0) translate(4 571)">
<polygon fill="white" stroke="none" points="-4,4 -4,-571 6883.88,-571 6883.88,4 -4,4"/>
<!-- 0 -->
<g id="node1" class="node">
<title>0</title>
<polygon fill="none" stroke="black" points="90.25,-567 4,-567 0,-563 0,-531 86.25,-531 90.25,-535 90.25,-567"/>
<polyline fill="none" stroke="black" points="86.25,-563 0,-563"/>
<polyline fill="none" stroke="black" points="86.25,-563 86.25,-531"/>
<polyline fill="none" stroke="black" points="86.25,-563 90.25,-567"/>
<text xml:space="preserve" text-anchor="middle" x="45.12" y="-543.95" font-family="Times New Roman,serif" font-size="14.00">IL_0000: nop</text>
</g>
<!-- 1 -->
<g id="node2" class="node">
<title>1</title>
<polygon fill="none" stroke="black" points="882.62,-301.5 363.62,-301.5 359.62,-297.5 359.62,-265.5 878.62,-265.5 882.62,-269.5 882.62,-301.5"/>
<polyline fill="none" stroke="black" points="878.62,-297.5 359.62,-297.5"/>
<polyline fill="none" stroke="black" points="878.62,-297.5 878.62,-265.5"/>
<polyline fill="none" stroke="black" points="878.62,-297.5 882.62,-301.5"/>
<text xml:space="preserve" text-anchor="middle" x="621.12" y="-278.45" font-family="Times New Roman,serif" font-size="14.00">IL_0001: call Windows10CE.InlineIL.InlineLabel Windows10CE.InlineIL.IL::DefineLabel()</text>
</g>
<!-- 6 -->
<g id="node3" class="node">
<title>6</title>
<polygon fill="none" stroke="black" points="674.12,-390 572.12,-390 568.12,-386 568.12,-354 670.12,-354 674.12,-358 674.12,-390"/>
<polyline fill="none" stroke="black" points="670.12,-386 568.12,-386"/>
<polyline fill="none" stroke="black" points="670.12,-386 670.12,-354"/>
<polyline fill="none" stroke="black" points="670.12,-386 674.12,-390"/>
<text xml:space="preserve" text-anchor="middle" x="621.12" y="-366.95" font-family="Times New Roman,serif" font-size="14.00">IL_0006: stloc.0</text>
</g>
<!-- 6&#45;&gt;1 -->
<g id="edge1" class="edge">
<title>6&#45;&gt;1</title>
<path fill="none" stroke="black" d="M621.12,-353.91C621.12,-342.26 621.12,-326.55 621.12,-313.02"/>
<polygon fill="black" stroke="black" points="624.63,-313.36 621.13,-303.36 617.63,-313.36 624.63,-313.36"/>
<text xml:space="preserve" text-anchor="middle" x="624.5" y="-322.7" font-family="Times New Roman,serif" font-size="14.00">0</text>
</g>
<!-- 7 -->
<g id="node4" class="node">
<title>7</title>
<polygon fill="none" stroke="black" points="562.88,-478.5 459.38,-478.5 455.38,-474.5 455.38,-442.5 558.88,-442.5 562.88,-446.5 562.88,-478.5"/>
<polyline fill="none" stroke="black" points="558.88,-474.5 455.38,-474.5"/>
<polyline fill="none" stroke="black" points="558.88,-474.5 558.88,-442.5"/>
<polyline fill="none" stroke="black" points="558.88,-474.5 562.88,-478.5"/>
<text xml:space="preserve" text-anchor="middle" x="509.12" y="-455.45" font-family="Times New Roman,serif" font-size="14.00">IL_0007: ldloc.0</text>
</g>
<!-- 7&#45;&gt;6 -->
<g id="edge2" class="edge">
<title>7&#45;&gt;6</title>
<path fill="none" stroke="gray" stroke-dasharray="5,2" d="M531.52,-442.2C548.23,-429.3 571.28,-411.5 589.81,-397.18"/>
<polygon fill="gray" stroke="gray" points="591.8,-400.07 597.57,-391.19 587.52,-394.53 591.8,-400.07"/>
<text xml:space="preserve" text-anchor="middle" x="586.78" y="-411.2" font-family="Times New Roman,serif" font-size="14.00">V_0</text>
</g>
<!-- 8 -->
<g id="node5" class="node">
<title>8</title>
<polygon fill="none" stroke="black" points="674.38,-567 111.88,-567 107.88,-563 107.88,-531 670.38,-531 674.38,-535 674.38,-567"/>
<polyline fill="none" stroke="black" points="670.38,-563 107.88,-563"/>
<polyline fill="none" stroke="black" points="670.38,-563 670.38,-531"/>
<polyline fill="none" stroke="black" points="670.38,-563 674.38,-567"/>
<text xml:space="preserve" text-anchor="middle" x="391.12" y="-543.95" font-family="Times New Roman,serif" font-size="14.00">IL_0008: call System.Void Windows10CE.InlineIL.ILEmit::Br(Windows10CE.InlineIL.InlineLabel)</text>
</g>
<!-- 8&#45;&gt;7 -->
<g id="edge3" class="edge">
<title>8&#45;&gt;7</title>
<path fill="none" stroke="black" d="M414.72,-530.7C432.41,-517.74 456.83,-499.84 476.4,-485.49"/>
<polygon fill="black" stroke="black" points="478.35,-488.4 484.35,-479.66 474.22,-482.75 478.35,-488.4"/>
<text xml:space="preserve" text-anchor="middle" x="464.07" y="-499.7" font-family="Times New Roman,serif" font-size="14.00">0</text>
</g>
<!-- 13 -->
<g id="node6" class="node">
<title>13</title>
<polygon fill="none" stroke="black" points="1390.75,-567 1301.5,-567 1297.5,-563 1297.5,-531 1386.75,-531 1390.75,-535 1390.75,-567"/>
<polyline fill="none" stroke="black" points="1386.75,-563 1297.5,-563"/>
<polyline fill="none" stroke="black" points="1386.75,-563 1386.75,-531"/>
<polyline fill="none" stroke="black" points="1386.75,-563 1390.75,-567"/>
<text xml:space="preserve" text-anchor="middle" x="1344.12" y="-543.95" font-family="Times New Roman,serif" font-size="14.00">IL_000D: nop</text>
</g>
<!-- 14 -->
<g id="node7" class="node">
<title>14</title>
<polygon fill="none" stroke="black" points="1699.5,-478.5 1590.75,-478.5 1586.75,-474.5 1586.75,-442.5 1695.5,-442.5 1699.5,-446.5 1699.5,-478.5"/>
<polyline fill="none" stroke="black" points="1695.5,-474.5 1586.75,-474.5"/>
<polyline fill="none" stroke="black" points="1695.5,-474.5 1695.5,-442.5"/>
<polyline fill="none" stroke="black" points="1695.5,-474.5 1699.5,-478.5"/>
<text xml:space="preserve" text-anchor="middle" x="1643.12" y="-455.45" font-family="Times New Roman,serif" font-size="14.00">IL_000E: ldc.i4.5</text>
</g>
<!-- 15 -->
<g id="node8" class="node">
<title>15</title>
<polygon fill="none" stroke="black" points="1877.62,-567 1412.62,-567 1408.62,-563 1408.62,-531 1873.62,-531 1877.62,-535 1877.62,-567"/>
<polyline fill="none" stroke="black" points="1873.62,-563 1408.62,-563"/>
<polyline fill="none" stroke="black" points="1873.62,-563 1873.62,-531"/>
<polyline fill="none" stroke="black" points="1873.62,-563 1877.62,-567"/>
<text xml:space="preserve" text-anchor="middle" x="1643.12" y="-543.95" font-family="Times New Roman,serif" font-size="14.00">IL_000F: call System.Void Windows10CE.InlineIL.ILEmit::Ldc_I4(System.Int32)</text>
</g>
<!-- 15&#45;&gt;14 -->
<g id="edge4" class="edge">
<title>15&#45;&gt;14</title>
<path fill="none" stroke="black" d="M1643.12,-530.91C1643.12,-519.26 1643.12,-503.55 1643.12,-490.02"/>
<polygon fill="black" stroke="black" points="1646.63,-490.36 1643.13,-480.36 1639.63,-490.36 1646.63,-490.36"/>
<text xml:space="preserve" text-anchor="middle" x="1646.5" y="-499.7" font-family="Times New Roman,serif" font-size="14.00">0</text>
</g>
<!-- 20 -->
<g id="node9" class="node">
<title>20</title>
<polygon fill="none" stroke="black" points="1986.25,-567 1900,-567 1896,-563 1896,-531 1982.25,-531 1986.25,-535 1986.25,-567"/>
<polyline fill="none" stroke="black" points="1982.25,-563 1896,-563"/>
<polyline fill="none" stroke="black" points="1982.25,-563 1982.25,-531"/>
<polyline fill="none" stroke="black" points="1982.25,-563 1986.25,-567"/>
<text xml:space="preserve" text-anchor="middle" x="1941.12" y="-543.95" font-family="Times New Roman,serif" font-size="14.00">IL_0014: nop</text>
</g>
<!-- 21 -->
<g id="node10" class="node">
<title>21</title>
<polygon fill="none" stroke="black" points="805.88,-478.5 702.38,-478.5 698.38,-474.5 698.38,-442.5 801.88,-442.5 805.88,-446.5 805.88,-478.5"/>
<polyline fill="none" stroke="black" points="801.88,-474.5 698.38,-474.5"/>
<polyline fill="none" stroke="black" points="801.88,-474.5 801.88,-442.5"/>
<polyline fill="none" stroke="black" points="801.88,-474.5 805.88,-478.5"/>
<text xml:space="preserve" text-anchor="middle" x="752.12" y="-455.45" font-family="Times New Roman,serif" font-size="14.00">IL_0015: ldloc.0</text>
</g>
<!-- 21&#45;&gt;6 -->
<g id="edge5" class="edge">
<title>21&#45;&gt;6</title>
<path fill="none" stroke="gray" stroke-dasharray="5,2" d="M725.93,-442.2C706.12,-429.12 678.69,-411.01 656.86,-396.6"/>
<polygon fill="gray" stroke="gray" points="658.81,-393.69 648.54,-391.1 654.95,-399.53 658.81,-393.69"/>
<text xml:space="preserve" text-anchor="middle" x="709.98" y="-411.2" font-family="Times New Roman,serif" font-size="14.00">V_0</text>
</g>
<!-- 22 -->
<g id="node11" class="node">
<title>22</title>
<polygon fill="none" stroke="black" points="1279.5,-567 696.75,-567 692.75,-563 692.75,-531 1275.5,-531 1279.5,-535 1279.5,-567"/>
<polyline fill="none" stroke="black" points="1275.5,-563 692.75,-563"/>
<polyline fill="none" stroke="black" points="1275.5,-563 1275.5,-531"/>
<polyline fill="none" stroke="black" points="1275.5,-563 1279.5,-567"/>
<text xml:space="preserve" text-anchor="middle" x="986.12" y="-543.95" font-family="Times New Roman,serif" font-size="14.00">IL_0016: call System.Void Windows10CE.InlineIL.IL::MarkLabel(Windows10CE.InlineIL.InlineLabel)</text>
</g>
<!-- 22&#45;&gt;21 -->
<g id="edge6" class="edge">
<title>22&#45;&gt;21</title>
<path fill="none" stroke="black" d="M939.05,-530.6C901.77,-516.82 849.51,-497.5 809.73,-482.79"/>
<polygon fill="black" stroke="black" points="811.13,-479.58 800.54,-479.4 808.71,-486.15 811.13,-479.58"/>
<text xml:space="preserve" text-anchor="middle" x="893.46" y="-499.7" font-family="Times New Roman,serif" font-size="14.00">0</text>
</g>
<!-- 27 -->
<g id="node12" class="node">
<title>27</title>
<polygon fill="none" stroke="black" points="2096.38,-567 2007.88,-567 2003.88,-563 2003.88,-531 2092.38,-531 2096.38,-535 2096.38,-567"/>
<polyline fill="none" stroke="black" points="2092.38,-563 2003.88,-563"/>
<polyline fill="none" stroke="black" points="2092.38,-563 2092.38,-531"/>
<polyline fill="none" stroke="black" points="2092.38,-563 2096.38,-567"/>
<text xml:space="preserve" text-anchor="middle" x="2050.12" y="-543.95" font-family="Times New Roman,serif" font-size="14.00">IL_001B: nop</text>
</g>
<!-- 28 -->
<g id="node13" class="node">
<title>28</title>
<polygon fill="none" stroke="black" points="2413.75,-478.5 2288.5,-478.5 2284.5,-474.5 2284.5,-442.5 2409.75,-442.5 2413.75,-446.5 2413.75,-478.5"/>
<polyline fill="none" stroke="black" points="2409.75,-474.5 2284.5,-474.5"/>
<polyline fill="none" stroke="black" points="2409.75,-474.5 2409.75,-442.5"/>
<polyline fill="none" stroke="black" points="2409.75,-474.5 2413.75,-478.5"/>
<text xml:space="preserve" text-anchor="middle" x="2349.12" y="-455.45" font-family="Times New Roman,serif" font-size="14.00">IL_001C: ldc.i4.s 20</text>
</g>
<!-- 30 -->
<g id="node14" class="node">
<title>30</title>
<polygon fill="none" stroke="black" points="2584,-567 2118.25,-567 2114.25,-563 2114.25,-531 2580,-531 2584,-535 2584,-567"/>
<polyline fill="none" stroke="black" points="2580,-563 2114.25,-563"/>
<polyline fill="none" stroke="black" points="2580,-563 2580,-531"/>
<polyline fill="none" stroke="black" points="2580,-563 2584,-567"/>
<text xml:space="preserve" text-anchor="middle" x="2349.12" y="-543.95" font-family="Times New Roman,serif" font-size="14.00">IL_001E: call System.Void Windows10CE.InlineIL.ILEmit::Ldc_I4(System.Int32)</text>
</g>
<!-- 30&#45;&gt;28 -->
<g id="edge7" class="edge">
<title>30&#45;&gt;28</title>
<path fill="none" stroke="black" d="M2349.12,-530.91C2349.12,-519.26 2349.12,-503.55 2349.12,-490.02"/>
<polygon fill="black" stroke="black" points="2352.63,-490.36 2349.13,-480.36 2345.63,-490.36 2352.63,-490.36"/>
<text xml:space="preserve" text-anchor="middle" x="2352.5" y="-499.7" font-family="Times New Roman,serif" font-size="14.00">0</text>
</g>
<!-- 35 -->
<g id="node15" class="node">
<title>35</title>
<polygon fill="none" stroke="black" points="2692.25,-567 2606,-567 2602,-563 2602,-531 2688.25,-531 2692.25,-535 2692.25,-567"/>
<polyline fill="none" stroke="black" points="2688.25,-563 2602,-563"/>
<polyline fill="none" stroke="black" points="2688.25,-563 2688.25,-531"/>
<polyline fill="none" stroke="black" points="2688.25,-563 2692.25,-567"/>
<text xml:space="preserve" text-anchor="middle" x="2647.12" y="-543.95" font-family="Times New Roman,serif" font-size="14.00">IL_0023: nop</text>
</g>
<!-- 36 -->
<g id="node16" class="node">
<title>36</title>
<polygon fill="none" stroke="black" points="3007.62,-478.5 2884.62,-478.5 2880.62,-474.5 2880.62,-442.5 3003.62,-442.5 3007.62,-446.5 3007.62,-478.5"/>
<polyline fill="none" stroke="black" points="3003.62,-474.5 2880.62,-474.5"/>
<polyline fill="none" stroke="black" points="3003.62,-474.5 3003.62,-442.5"/>
<polyline fill="none" stroke="black" points="3003.62,-474.5 3007.62,-478.5"/>
<text xml:space="preserve" text-anchor="middle" x="2944.12" y="-455.45" font-family="Times New Roman,serif" font-size="14.00">IL_0024: ldc.i4.s 10</text>
</g>
<!-- 38 -->
<g id="node17" class="node">
<title>38</title>
<polygon fill="none" stroke="black" points="3178.25,-567 2714,-567 2710,-563 2710,-531 3174.25,-531 3178.25,-535 3178.25,-567"/>
<polyline fill="none" stroke="black" points="3174.25,-563 2710,-563"/>
<polyline fill="none" stroke="black" points="3174.25,-563 3174.25,-531"/>
<polyline fill="none" stroke="black" points="3174.25,-563 3178.25,-567"/>
<text xml:space="preserve" text-anchor="middle" x="2944.12" y="-543.95" font-family="Times New Roman,serif" font-size="14.00">IL_0026: call System.Void Windows10CE.InlineIL.ILEmit::Ldc_I4(System.Int32)</text>
</g>
<!-- 38&#45;&gt;36 -->
<g id="edge8" class="edge">
<title>38&#45;&gt;36</title>
<path fill="none" stroke="black" d="M2944.12,-530.91C2944.12,-519.26 2944.12,-503.55 2944.12,-490.02"/>
<polygon fill="black" stroke="black" points="2947.63,-490.36 2944.13,-480.36 2940.63,-490.36 2947.63,-490.36"/>
<text xml:space="preserve" text-anchor="middle" x="2947.5" y="-499.7" font-family="Times New Roman,serif" font-size="14.00">0</text>
</g>
<!-- 43 -->
<g id="node18" class="node">
<title>43</title>
<polygon fill="none" stroke="black" points="3288.38,-567 3199.88,-567 3195.88,-563 3195.88,-531 3284.38,-531 3288.38,-535 3288.38,-567"/>
<polyline fill="none" stroke="black" points="3284.38,-563 3195.88,-563"/>
<polyline fill="none" stroke="black" points="3284.38,-563 3284.38,-531"/>
<polyline fill="none" stroke="black" points="3284.38,-563 3288.38,-567"/>
<text xml:space="preserve" text-anchor="middle" x="3242.12" y="-543.95" font-family="Times New Roman,serif" font-size="14.00">IL_002B: nop</text>
</g>
<!-- 44 -->
<g id="node19" class="node">
<title>44</title>
<polygon fill="none" stroke="black" points="4110.75,-301.5 3589.5,-301.5 3585.5,-297.5 3585.5,-265.5 4106.75,-265.5 4110.75,-269.5 4110.75,-301.5"/>
<polyline fill="none" stroke="black" points="4106.75,-297.5 3585.5,-297.5"/>
<polyline fill="none" stroke="black" points="4106.75,-297.5 4106.75,-265.5"/>
<polyline fill="none" stroke="black" points="4106.75,-297.5 4110.75,-301.5"/>
<text xml:space="preserve" text-anchor="middle" x="3848.12" y="-278.45" font-family="Times New Roman,serif" font-size="14.00">IL_002C: call Windows10CE.InlineIL.InlineLabel Windows10CE.InlineIL.IL::DefineLabel()</text>
</g>
<!-- 49 -->
<g id="node20" class="node">
<title>49</title>
<polygon fill="none" stroke="black" points="3901.12,-390 3799.12,-390 3795.12,-386 3795.12,-354 3897.12,-354 3901.12,-358 3901.12,-390"/>
<polyline fill="none" stroke="black" points="3897.12,-386 3795.12,-386"/>
<polyline fill="none" stroke="black" points="3897.12,-386 3897.12,-354"/>
<polyline fill="none" stroke="black" points="3897.12,-386 3901.12,-390"/>
<text xml:space="preserve" text-anchor="middle" x="3848.12" y="-366.95" font-family="Times New Roman,serif" font-size="14.00">IL_0031: stloc.0</text>
</g>
<!-- 49&#45;&gt;44 -->
<g id="edge9" class="edge">
<title>49&#45;&gt;44</title>
<path fill="none" stroke="black" d="M3848.12,-353.91C3848.12,-342.26 3848.12,-326.55 3848.12,-313.02"/>
<polygon fill="black" stroke="black" points="3851.63,-313.36 3848.13,-303.36 3844.63,-313.36 3851.63,-313.36"/>
<text xml:space="preserve" text-anchor="middle" x="3851.5" y="-322.7" font-family="Times New Roman,serif" font-size="14.00">0</text>
</g>
<!-- 50 -->
<g id="node21" class="node">
<title>50</title>
<polygon fill="none" stroke="black" points="3676.88,-478.5 3573.38,-478.5 3569.38,-474.5 3569.38,-442.5 3672.88,-442.5 3676.88,-446.5 3676.88,-478.5"/>
<polyline fill="none" stroke="black" points="3672.88,-474.5 3569.38,-474.5"/>
<polyline fill="none" stroke="black" points="3672.88,-474.5 3672.88,-442.5"/>
<polyline fill="none" stroke="black" points="3672.88,-474.5 3676.88,-478.5"/>
<text xml:space="preserve" text-anchor="middle" x="3623.12" y="-455.45" font-family="Times New Roman,serif" font-size="14.00">IL_0032: ldloc.0</text>
</g>
<!-- 50&#45;&gt;49 -->
<g id="edge10" class="edge">
<title>50&#45;&gt;49</title>
<path fill="none" stroke="gray" stroke-dasharray="5,2" d="M3668.39,-442.1C3704.16,-428.35 3754.27,-409.08 3792.49,-394.39"/>
<polygon fill="gray" stroke="gray" points="3793.45,-397.77 3801.52,-390.92 3790.93,-391.24 3793.45,-397.77"/>
<text xml:space="preserve" text-anchor="middle" x="3767.4" y="-411.2" font-family="Times New Roman,serif" font-size="14.00">V_0</text>
</g>
<!-- 51 -->
<g id="node22" class="node">
<title>51</title>
<polygon fill="none" stroke="black" points="3893.5,-567 3310.75,-567 3306.75,-563 3306.75,-531 3889.5,-531 3893.5,-535 3893.5,-567"/>
<polyline fill="none" stroke="black" points="3889.5,-563 3306.75,-563"/>
<polyline fill="none" stroke="black" points="3889.5,-563 3889.5,-531"/>
<polyline fill="none" stroke="black" points="3889.5,-563 3893.5,-567"/>
<text xml:space="preserve" text-anchor="middle" x="3600.12" y="-543.95" font-family="Times New Roman,serif" font-size="14.00">IL_0033: call System.Void Windows10CE.InlineIL.IL::MarkLabel(Windows10CE.InlineIL.InlineLabel)</text>
</g>
<!-- 51&#45;&gt;50 -->
<g id="edge11" class="edge">
<title>51&#45;&gt;50</title>
<path fill="none" stroke="black" d="M3604.67,-530.91C3607.8,-519.14 3612.03,-503.23 3615.65,-489.61"/>
<polygon fill="black" stroke="black" points="3618.94,-490.88 3618.12,-480.31 3612.17,-489.08 3618.94,-490.88"/>
<text xml:space="preserve" text-anchor="middle" x="3617.06" y="-499.7" font-family="Times New Roman,serif" font-size="14.00">0</text>
</g>
<!-- 56 -->
<g id="node23" class="node">
<title>56</title>
<polygon fill="none" stroke="black" points="4767.25,-567 4681,-567 4677,-563 4677,-531 4763.25,-531 4767.25,-535 4767.25,-567"/>
<polyline fill="none" stroke="black" points="4763.25,-563 4677,-563"/>
<polyline fill="none" stroke="black" points="4763.25,-563 4763.25,-531"/>
<polyline fill="none" stroke="black" points="4763.25,-563 4767.25,-567"/>
<text xml:space="preserve" text-anchor="middle" x="4722.12" y="-543.95" font-family="Times New Roman,serif" font-size="14.00">IL_0038: nop</text>
</g>
<!-- 57 -->
<g id="node24" class="node">
<title>57</title>
<polygon fill="none" stroke="black" points="4014.88,-478.5 3911.38,-478.5 3907.38,-474.5 3907.38,-442.5 4010.88,-442.5 4014.88,-446.5 4014.88,-478.5"/>
<polyline fill="none" stroke="black" points="4010.88,-474.5 3907.38,-474.5"/>
<polyline fill="none" stroke="black" points="4010.88,-474.5 4010.88,-442.5"/>
<polyline fill="none" stroke="black" points="4010.88,-474.5 4014.88,-478.5"/>
<text xml:space="preserve" text-anchor="middle" x="3961.12" y="-455.45" font-family="Times New Roman,serif" font-size="14.00">IL_0039: ldloc.0</text>
</g>
<!-- 57&#45;&gt;49 -->
<g id="edge12" class="edge">
<title>57&#45;&gt;49</title>
<path fill="none" stroke="gray" stroke-dasharray="5,2" d="M3938.53,-442.2C3921.67,-429.3 3898.42,-411.5 3879.72,-397.18"/>
<polygon fill="gray" stroke="gray" points="3881.95,-394.49 3871.88,-391.19 3877.7,-400.04 3881.95,-394.49"/>
<text xml:space="preserve" text-anchor="middle" x="3926.37" y="-411.2" font-family="Times New Roman,serif" font-size="14.00">V_0</text>
</g>
<!-- 58 -->
<g id="node25" class="node">
<title>58</title>
<polygon fill="none" stroke="black" points="4480.88,-567 3915.38,-567 3911.38,-563 3911.38,-531 4476.88,-531 4480.88,-535 4480.88,-567"/>
<polyline fill="none" stroke="black" points="4476.88,-563 3911.38,-563"/>
<polyline fill="none" stroke="black" points="4476.88,-563 4476.88,-531"/>
<polyline fill="none" stroke="black" points="4476.88,-563 4480.88,-567"/>
<text xml:space="preserve" text-anchor="middle" x="4196.12" y="-543.95" font-family="Times New Roman,serif" font-size="14.00">IL_003A: call System.Void Windows10CE.InlineIL.ILEmit::Br(Windows10CE.InlineIL.InlineLabel)</text>
</g>
<!-- 58&#45;&gt;57 -->
<g id="edge13" class="edge">
<title>58&#45;&gt;57</title>
<path fill="none" stroke="black" d="M4148.85,-530.6C4111.41,-516.82 4058.93,-497.5 4018.97,-482.79"/>
<polygon fill="black" stroke="black" points="4020.34,-479.57 4009.74,-479.4 4017.92,-486.13 4020.34,-479.57"/>
<text xml:space="preserve" text-anchor="middle" x="4103.05" y="-499.7" font-family="Times New Roman,serif" font-size="14.00">0</text>
</g>
<!-- 63 -->
<g id="node26" class="node">
<title>63</title>
<polygon fill="none" stroke="black" points="5264.62,-567 5177.62,-567 5173.62,-563 5173.62,-531 5260.62,-531 5264.62,-535 5264.62,-567"/>
<polyline fill="none" stroke="black" points="5260.62,-563 5173.62,-563"/>
<polyline fill="none" stroke="black" points="5260.62,-563 5260.62,-531"/>
<polyline fill="none" stroke="black" points="5260.62,-563 5264.62,-567"/>
<text xml:space="preserve" text-anchor="middle" x="5219.12" y="-543.95" font-family="Times New Roman,serif" font-size="14.00">IL_003F: nop</text>
</g>
<!-- 64 -->
<g id="node27" class="node">
<title>64</title>
<polygon fill="none" stroke="black" points="4029.75,-36 3910.5,-36 3906.5,-32 3906.5,0 4025.75,0 4029.75,-4 4029.75,-36"/>
<polyline fill="none" stroke="black" points="4025.75,-32 3906.5,-32"/>
<polyline fill="none" stroke="black" points="4025.75,-32 4025.75,0"/>
<polyline fill="none" stroke="black" points="4025.75,-32 4029.75,-36"/>
<text xml:space="preserve" text-anchor="middle" x="3968.12" y="-12.95" font-family="Times New Roman,serif" font-size="14.00">IL_0040: ldtoken C</text>
</g>
<!-- 69 -->
<g id="node28" class="node">
<title>69</title>
<polygon fill="none" stroke="black" points="4232.62,-124.5 3707.62,-124.5 3703.62,-120.5 3703.62,-88.5 4228.62,-88.5 4232.62,-92.5 4232.62,-124.5"/>
<polyline fill="none" stroke="black" points="4228.62,-120.5 3703.62,-120.5"/>
<polyline fill="none" stroke="black" points="4228.62,-120.5 4228.62,-88.5"/>
<polyline fill="none" stroke="black" points="4228.62,-120.5 4232.62,-124.5"/>
<text xml:space="preserve" text-anchor="middle" x="3968.12" y="-101.45" font-family="Times New Roman,serif" font-size="14.00">IL_0045: call System.Type System.Type::GetTypeFromHandle(System.RuntimeTypeHandle)</text>
</g>
<!-- 69&#45;&gt;64 -->
<g id="edge14" class="edge">
<title>69&#45;&gt;64</title>
<path fill="none" stroke="black" d="M3968.12,-88.41C3968.12,-76.76 3968.12,-61.05 3968.12,-47.52"/>
<polygon fill="black" stroke="black" points="3971.63,-47.86 3968.13,-37.86 3964.63,-47.86 3971.63,-47.86"/>
<text xml:space="preserve" text-anchor="middle" x="3971.5" y="-57.2" font-family="Times New Roman,serif" font-size="14.00">0</text>
</g>
<!-- 74 -->
<g id="node29" class="node">
<title>74</title>
<polygon fill="none" stroke="black" points="4273.88,-213 3666.38,-213 3662.38,-209 3662.38,-177 4269.88,-177 4273.88,-181 4273.88,-213"/>
<polyline fill="none" stroke="black" points="4269.88,-209 3662.38,-209"/>
<polyline fill="none" stroke="black" points="4269.88,-209 4269.88,-177"/>
<polyline fill="none" stroke="black" points="4269.88,-209 4273.88,-213"/>
<text xml:space="preserve" text-anchor="middle" x="3968.12" y="-189.95" font-family="Times New Roman,serif" font-size="14.00">IL_004A: call Windows10CE.InlineIL.TypeRef Windows10CE.InlineIL.TypeRef::op_Implicit(System.Type)</text>
</g>
<!-- 74&#45;&gt;69 -->
<g id="edge15" class="edge">
<title>74&#45;&gt;69</title>
<path fill="none" stroke="black" d="M3968.12,-176.91C3968.12,-165.26 3968.12,-149.55 3968.12,-136.02"/>
<polygon fill="black" stroke="black" points="3971.63,-136.36 3968.13,-126.36 3964.63,-136.36 3971.63,-136.36"/>
<text xml:space="preserve" text-anchor="middle" x="3971.5" y="-145.7" font-family="Times New Roman,serif" font-size="14.00">0</text>
</g>
<!-- 79 -->
<g id="node30" class="node">
<title>79</title>
<polygon fill="none" stroke="black" points="4426,-213 4296.25,-213 4292.25,-209 4292.25,-177 4422,-177 4426,-181 4426,-213"/>
<polyline fill="none" stroke="black" points="4422,-209 4292.25,-209"/>
<polyline fill="none" stroke="black" points="4422,-209 4422,-177"/>
<polyline fill="none" stroke="black" points="4422,-209 4426,-213"/>
<text xml:space="preserve" text-anchor="middle" x="4359.12" y="-189.95" font-family="Times New Roman,serif" font-size="14.00">IL_004F: ldstr &quot;Add&quot;</text>
</g>
<!-- 84 -->
<g id="node31" class="node">
<title>84</title>
<polygon fill="none" stroke="black" points="4842.62,-36 4659.62,-36 4655.62,-32 4655.62,0 4838.62,0 4842.62,-4 4842.62,-36"/>
<polyline fill="none" stroke="black" points="4838.62,-32 4655.62,-32"/>
<polyline fill="none" stroke="black" points="4838.62,-32 4838.62,0"/>
<polyline fill="none" stroke="black" points="4838.62,-32 4842.62,-36"/>
<text xml:space="preserve" text-anchor="middle" x="4749.12" y="-12.95" font-family="Times New Roman,serif" font-size="14.00">IL_0054: ldtoken System.Int32</text>
</g>
<!-- 89 -->
<g id="node32" class="node">
<title>89</title>
<polygon fill="none" stroke="black" points="5013.62,-124.5 4488.62,-124.5 4484.62,-120.5 4484.62,-88.5 5009.62,-88.5 5013.62,-92.5 5013.62,-124.5"/>
<polyline fill="none" stroke="black" points="5009.62,-120.5 4484.62,-120.5"/>
<polyline fill="none" stroke="black" points="5009.62,-120.5 5009.62,-88.5"/>
<polyline fill="none" stroke="black" points="5009.62,-120.5 5013.62,-124.5"/>
<text xml:space="preserve" text-anchor="middle" x="4749.12" y="-101.45" font-family="Times New Roman,serif" font-size="14.00">IL_0059: call System.Type System.Type::GetTypeFromHandle(System.RuntimeTypeHandle)</text>
</g>
<!-- 89&#45;&gt;84 -->
<g id="edge16" class="edge">
<title>89&#45;&gt;84</title>
<path fill="none" stroke="black" d="M4749.12,-88.41C4749.12,-76.76 4749.12,-61.05 4749.12,-47.52"/>
<polygon fill="black" stroke="black" points="4752.63,-47.86 4749.13,-37.86 4745.63,-47.86 4752.63,-47.86"/>
<text xml:space="preserve" text-anchor="middle" x="4752.5" y="-57.2" font-family="Times New Roman,serif" font-size="14.00">0</text>
</g>
<!-- 94 -->
<g id="node33" class="node">
<title>94</title>
<polygon fill="none" stroke="black" points="5054.12,-213 4448.12,-213 4444.12,-209 4444.12,-177 5050.12,-177 5054.12,-181 5054.12,-213"/>
<polyline fill="none" stroke="black" points="5050.12,-209 4444.12,-209"/>
<polyline fill="none" stroke="black" points="5050.12,-209 5050.12,-177"/>
<polyline fill="none" stroke="black" points="5050.12,-209 5054.12,-213"/>
<text xml:space="preserve" text-anchor="middle" x="4749.12" y="-189.95" font-family="Times New Roman,serif" font-size="14.00">IL_005E: call Windows10CE.InlineIL.TypeRef Windows10CE.InlineIL.TypeRef::op_Implicit(System.Type)</text>
</g>
<!-- 94&#45;&gt;89 -->
<g id="edge17" class="edge">
<title>94&#45;&gt;89</title>
<path fill="none" stroke="black" d="M4749.12,-176.91C4749.12,-165.26 4749.12,-149.55 4749.12,-136.02"/>
<polygon fill="black" stroke="black" points="4752.63,-136.36 4749.13,-126.36 4745.63,-136.36 4752.63,-136.36"/>
<text xml:space="preserve" text-anchor="middle" x="4752.5" y="-145.7" font-family="Times New Roman,serif" font-size="14.00">0</text>
</g>
<!-- 99 -->
<g id="node34" class="node">
<title>99</title>
<polygon fill="none" stroke="black" points="5183.75,-213 5076.5,-213 5072.5,-209 5072.5,-177 5179.75,-177 5183.75,-181 5183.75,-213"/>
<polyline fill="none" stroke="black" points="5179.75,-209 5072.5,-209"/>
<polyline fill="none" stroke="black" points="5179.75,-209 5179.75,-177"/>
<polyline fill="none" stroke="black" points="5179.75,-209 5183.75,-213"/>
<text xml:space="preserve" text-anchor="middle" x="5128.12" y="-189.95" font-family="Times New Roman,serif" font-size="14.00">IL_0063: ldc.i4.0</text>
</g>
<!-- 100 -->
<g id="node35" class="node">
<title>100</title>
<polygon fill="none" stroke="black" points="5219.12,-301.5 4133.12,-301.5 4129.12,-297.5 4129.12,-265.5 5215.12,-265.5 5219.12,-269.5 5219.12,-301.5"/>
<polyline fill="none" stroke="black" points="5215.12,-297.5 4129.12,-297.5"/>
<polyline fill="none" stroke="black" points="5215.12,-297.5 5215.12,-265.5"/>
<polyline fill="none" stroke="black" points="5215.12,-297.5 5219.12,-301.5"/>
<text xml:space="preserve" text-anchor="middle" x="4674.12" y="-278.45" font-family="Times New Roman,serif" font-size="14.00">IL_0064: call Windows10CE.InlineIL.MethodRef Windows10CE.InlineIL.MethodRef::Create(Windows10CE.InlineIL.TypeRef, System.String, Windows10CE.InlineIL.TypeRef, System.Boolean)</text>
</g>
<!-- 100&#45;&gt;74 -->
<g id="edge18" class="edge">
<title>100&#45;&gt;74</title>
<path fill="none" stroke="black" d="M4531.68,-265.05C4412.94,-250.5 4244.11,-229.81 4122.23,-214.88"/>
<polygon fill="black" stroke="black" points="4122.81,-211.43 4112.46,-213.68 4121.96,-218.37 4122.81,-211.43"/>
<text xml:space="preserve" text-anchor="middle" x="4387.74" y="-234.2" font-family="Times New Roman,serif" font-size="14.00">0</text>
</g>
<!-- 100&#45;&gt;79 -->
<g id="edge19" class="edge">
<title>100&#45;&gt;79</title>
<path fill="none" stroke="black" d="M4610.76,-265.1C4559.58,-251.05 4487.45,-231.24 4433.53,-216.43"/>
<polygon fill="black" stroke="black" points="4434.69,-213.12 4424.12,-213.85 4432.84,-219.87 4434.69,-213.12"/>
<text xml:space="preserve" text-anchor="middle" x="4548.21" y="-234.2" font-family="Times New Roman,serif" font-size="14.00">0</text>
</g>
<!-- 100&#45;&gt;94 -->
<g id="edge20" class="edge">
<title>100&#45;&gt;94</title>
<path fill="none" stroke="black" d="M4688.94,-265.41C4699.76,-252.93 4714.61,-235.8 4726.86,-221.68"/>
<polygon fill="black" stroke="black" points="4729.18,-224.34 4733.09,-214.49 4723.89,-219.76 4729.18,-224.34"/>
<text xml:space="preserve" text-anchor="middle" x="4721.72" y="-234.2" font-family="Times New Roman,serif" font-size="14.00">0</text>
</g>
<!-- 100&#45;&gt;99 -->
<g id="edge21" class="edge">
<title>100&#45;&gt;99</title>
<path fill="none" stroke="black" d="M4785.25,-265.04C4860.49,-252.66 4962.32,-234.81 5061.08,-213.36"/>
<polygon fill="black" stroke="black" points="5061.67,-216.81 5070.69,-211.26 5060.18,-209.98 5061.67,-216.81"/>
<text xml:space="preserve" text-anchor="middle" x="4970.94" y="-234.2" font-family="Times New Roman,serif" font-size="14.00">0</text>
</g>
<!-- 105 -->
<g id="node36" class="node">
<title>105</title>
<polygon fill="none" stroke="black" points="5634.62,-124.5 5451.62,-124.5 5447.62,-120.5 5447.62,-88.5 5630.62,-88.5 5634.62,-92.5 5634.62,-124.5"/>
<polyline fill="none" stroke="black" points="5630.62,-120.5 5447.62,-120.5"/>
<polyline fill="none" stroke="black" points="5630.62,-120.5 5630.62,-88.5"/>
<polyline fill="none" stroke="black" points="5630.62,-120.5 5634.62,-124.5"/>
<text xml:space="preserve" text-anchor="middle" x="5541.12" y="-101.45" font-family="Times New Roman,serif" font-size="14.00">IL_0069: ldtoken System.Int32</text>
</g>
<!-- 110 -->
<g id="node37" class="node">
<title>110</title>
<polygon fill="none" stroke="black" points="5806.38,-213 5279.88,-213 5275.88,-209 5275.88,-177 5802.38,-177 5806.38,-181 5806.38,-213"/>
<polyline fill="none" stroke="black" points="5802.38,-209 5275.88,-209"/>
<polyline fill="none" stroke="black" points="5802.38,-209 5802.38,-177"/>
<polyline fill="none" stroke="black" points="5802.38,-209 5806.38,-213"/>
<text xml:space="preserve" text-anchor="middle" x="5541.12" y="-189.95" font-family="Times New Roman,serif" font-size="14.00">IL_006E: call System.Type System.Type::GetTypeFromHandle(System.RuntimeTypeHandle)</text>
</g>
<!-- 110&#45;&gt;105 -->
<g id="edge22" class="edge">
<title>110&#45;&gt;105</title>
<path fill="none" stroke="black" d="M5541.12,-176.91C5541.12,-165.26 5541.12,-149.55 5541.12,-136.02"/>
<polygon fill="black" stroke="black" points="5544.63,-136.36 5541.13,-126.36 5537.63,-136.36 5544.63,-136.36"/>
<text xml:space="preserve" text-anchor="middle" x="5544.5" y="-145.7" font-family="Times New Roman,serif" font-size="14.00">0</text>
</g>
<!-- 115 -->
<g id="node38" class="node">
<title>115</title>
<polygon fill="none" stroke="black" points="5845.38,-301.5 5240.88,-301.5 5236.88,-297.5 5236.88,-265.5 5841.38,-265.5 5845.38,-269.5 5845.38,-301.5"/>
<polyline fill="none" stroke="black" points="5841.38,-297.5 5236.88,-297.5"/>
<polyline fill="none" stroke="black" points="5841.38,-297.5 5841.38,-265.5"/>
<polyline fill="none" stroke="black" points="5841.38,-297.5 5845.38,-301.5"/>
<text xml:space="preserve" text-anchor="middle" x="5541.12" y="-278.45" font-family="Times New Roman,serif" font-size="14.00">IL_0073: call Windows10CE.InlineIL.TypeRef Windows10CE.InlineIL.TypeRef::op_Implicit(System.Type)</text>
</g>
<!-- 115&#45;&gt;110 -->
<g id="edge23" class="edge">
<title>115&#45;&gt;110</title>
<path fill="none" stroke="black" d="M5541.12,-265.41C5541.12,-253.76 5541.12,-238.05 5541.12,-224.52"/>
<polygon fill="black" stroke="black" points="5544.63,-224.86 5541.13,-214.86 5537.63,-224.86 5544.63,-224.86"/>
<text xml:space="preserve" text-anchor="middle" x="5544.5" y="-234.2" font-family="Times New Roman,serif" font-size="14.00">0</text>
</g>
<!-- 120 -->
<g id="node39" class="node">
<title>120</title>
<polygon fill="none" stroke="black" points="5869.62,-390 5086.62,-390 5082.62,-386 5082.62,-354 5865.62,-354 5869.62,-358 5869.62,-390"/>
<polyline fill="none" stroke="black" points="5865.62,-386 5082.62,-386"/>
<polyline fill="none" stroke="black" points="5865.62,-386 5865.62,-354"/>
<polyline fill="none" stroke="black" points="5865.62,-386 5869.62,-390"/>
<text xml:space="preserve" text-anchor="middle" x="5476.12" y="-366.95" font-family="Times New Roman,serif" font-size="14.00">IL_0078: callvirt Windows10CE.InlineIL.MethodRef Windows10CE.InlineIL.MethodRef::WithParameter(Windows10CE.InlineIL.TypeRef)</text>
</g>
<!-- 120&#45;&gt;100 -->
<g id="edge24" class="edge">
<title>120&#45;&gt;100</title>
<path fill="none" stroke="black" d="M5314.31,-353.55C5178.88,-338.94 4986.09,-318.15 4847.51,-303.2"/>
<polygon fill="black" stroke="black" points="4848.2,-299.75 4837.88,-302.16 4847.45,-306.71 4848.2,-299.75"/>
<text xml:space="preserve" text-anchor="middle" x="5150.33" y="-322.7" font-family="Times New Roman,serif" font-size="14.00">0</text>
</g>
<!-- 120&#45;&gt;115 -->
<g id="edge25" class="edge">
<title>120&#45;&gt;115</title>
<path fill="none" stroke="black" d="M5488.97,-353.91C5498.17,-341.67 5510.73,-324.95 5521.22,-310.99"/>
<polygon fill="black" stroke="black" points="5523.97,-313.16 5527.18,-303.06 5518.37,-308.95 5523.97,-313.16"/>
<text xml:space="preserve" text-anchor="middle" x="5517.82" y="-322.7" font-family="Times New Roman,serif" font-size="14.00">0</text>
</g>
<!-- 125 -->
<g id="node40" class="node">
<title>125</title>
<polygon fill="none" stroke="black" points="6287.12,-213 6101.12,-213 6097.12,-209 6097.12,-177 6283.12,-177 6287.12,-181 6287.12,-213"/>
<polyline fill="none" stroke="black" points="6283.12,-209 6097.12,-209"/>
<polyline fill="none" stroke="black" points="6283.12,-209 6283.12,-177"/>
<polyline fill="none" stroke="black" points="6283.12,-209 6287.12,-213"/>
<text xml:space="preserve" text-anchor="middle" x="6192.12" y="-189.95" font-family="Times New Roman,serif" font-size="14.00">IL_007D: ldtoken System.Int32</text>
</g>
<!-- 130 -->
<g id="node41" class="node">
<title>130</title>
<polygon fill="none" stroke="black" points="6456.62,-301.5 5931.62,-301.5 5927.62,-297.5 5927.62,-265.5 6452.62,-265.5 6456.62,-269.5 6456.62,-301.5"/>
<polyline fill="none" stroke="black" points="6452.62,-297.5 5927.62,-297.5"/>
<polyline fill="none" stroke="black" points="6452.62,-297.5 6452.62,-265.5"/>
<polyline fill="none" stroke="black" points="6452.62,-297.5 6456.62,-301.5"/>
<text xml:space="preserve" text-anchor="middle" x="6192.12" y="-278.45" font-family="Times New Roman,serif" font-size="14.00">IL_0082: call System.Type System.Type::GetTypeFromHandle(System.RuntimeTypeHandle)</text>
</g>
<!-- 130&#45;&gt;125 -->
<g id="edge26" class="edge">
<title>130&#45;&gt;125</title>
<path fill="none" stroke="black" d="M6192.12,-265.41C6192.12,-253.76 6192.12,-238.05 6192.12,-224.52"/>
<polygon fill="black" stroke="black" points="6195.63,-224.86 6192.13,-214.86 6188.63,-224.86 6195.63,-224.86"/>
<text xml:space="preserve" text-anchor="middle" x="6195.5" y="-234.2" font-family="Times New Roman,serif" font-size="14.00">0</text>
</g>
<!-- 135 -->
<g id="node42" class="node">
<title>135</title>
<polygon fill="none" stroke="black" points="6496.38,-390 5891.88,-390 5887.88,-386 5887.88,-354 6492.38,-354 6496.38,-358 6496.38,-390"/>
<polyline fill="none" stroke="black" points="6492.38,-386 5887.88,-386"/>
<polyline fill="none" stroke="black" points="6492.38,-386 6492.38,-354"/>
<polyline fill="none" stroke="black" points="6492.38,-386 6496.38,-390"/>
<text xml:space="preserve" text-anchor="middle" x="6192.12" y="-366.95" font-family="Times New Roman,serif" font-size="14.00">IL_0087: call Windows10CE.InlineIL.TypeRef Windows10CE.InlineIL.TypeRef::op_Implicit(System.Type)</text>
</g>
<!-- 135&#45;&gt;130 -->
<g id="edge27" class="edge">
<title>135&#45;&gt;130</title>
<path fill="none" stroke="black" d="M6192.12,-353.91C6192.12,-342.26 6192.12,-326.55 6192.12,-313.02"/>
<polygon fill="black" stroke="black" points="6195.63,-313.36 6192.13,-303.36 6188.63,-313.36 6195.63,-313.36"/>
<text xml:space="preserve" text-anchor="middle" x="6195.5" y="-322.7" font-family="Times New Roman,serif" font-size="14.00">0</text>
</g>
<!-- 140 -->
<g id="node43" class="node">
<title>140</title>
<polygon fill="none" stroke="black" points="6158.75,-478.5 5373.5,-478.5 5369.5,-474.5 5369.5,-442.5 6154.75,-442.5 6158.75,-446.5 6158.75,-478.5"/>
<polyline fill="none" stroke="black" points="6154.75,-474.5 5369.5,-474.5"/>
<polyline fill="none" stroke="black" points="6154.75,-474.5 6154.75,-442.5"/>
<polyline fill="none" stroke="black" points="6154.75,-474.5 6158.75,-478.5"/>
<text xml:space="preserve" text-anchor="middle" x="5764.12" y="-455.45" font-family="Times New Roman,serif" font-size="14.00">IL_008C: callvirt Windows10CE.InlineIL.MethodRef Windows10CE.InlineIL.MethodRef::WithParameter(Windows10CE.InlineIL.TypeRef)</text>
</g>
<!-- 140&#45;&gt;120 -->
<g id="edge28" class="edge">
<title>140&#45;&gt;120</title>
<path fill="none" stroke="black" d="M5706.19,-442.1C5659.61,-428.11 5594.06,-408.42 5544.84,-393.64"/>
<polygon fill="black" stroke="black" points="5546,-390.33 5535.42,-390.81 5543.99,-397.04 5546,-390.33"/>
<text xml:space="preserve" text-anchor="middle" x="5649.3" y="-411.2" font-family="Times New Roman,serif" font-size="14.00">0</text>
</g>
<!-- 140&#45;&gt;135 -->
<g id="edge29" class="edge">
<title>140&#45;&gt;135</title>
<path fill="none" stroke="black" d="M5850.48,-442.05C5921.09,-427.78 6020.91,-407.6 6094.43,-392.74"/>
<polygon fill="black" stroke="black" points="6094.94,-396.21 6104.05,-390.8 6093.56,-389.35 6094.94,-396.21"/>
<text xml:space="preserve" text-anchor="middle" x="6019.84" y="-411.2" font-family="Times New Roman,serif" font-size="14.00">0</text>
</g>
<!-- 145 -->
<g id="node44" class="node">
<title>145</title>
<polygon fill="none" stroke="black" points="6051.88,-567 5480.38,-567 5476.38,-563 5476.38,-531 6047.88,-531 6051.88,-535 6051.88,-567"/>
<polyline fill="none" stroke="black" points="6047.88,-563 5476.38,-563"/>
<polyline fill="none" stroke="black" points="6047.88,-563 6047.88,-531"/>
<polyline fill="none" stroke="black" points="6047.88,-563 6051.88,-567"/>
<text xml:space="preserve" text-anchor="middle" x="5764.12" y="-543.95" font-family="Times New Roman,serif" font-size="14.00">IL_0091: call System.Void Windows10CE.InlineIL.ILEmit::Call(Windows10CE.InlineIL.MethodRef)</text>
</g>
<!-- 145&#45;&gt;140 -->
<g id="edge30" class="edge">
<title>145&#45;&gt;140</title>
<path fill="none" stroke="black" d="M5764.12,-530.91C5764.12,-519.26 5764.12,-503.55 5764.12,-490.02"/>
<polygon fill="black" stroke="black" points="5767.63,-490.36 5764.13,-480.36 5760.63,-490.36 5767.63,-490.36"/>
<text xml:space="preserve" text-anchor="middle" x="5767.5" y="-499.7" font-family="Times New Roman,serif" font-size="14.00">0</text>
</g>
<!-- 150 -->
<g id="node45" class="node">
<title>150</title>
<polygon fill="none" stroke="black" points="6429.25,-567 6343,-567 6339,-563 6339,-531 6425.25,-531 6429.25,-535 6429.25,-567"/>
<polyline fill="none" stroke="black" points="6425.25,-563 6339,-563"/>
<polyline fill="none" stroke="black" points="6425.25,-563 6425.25,-531"/>
<polyline fill="none" stroke="black" points="6425.25,-563 6429.25,-567"/>
<text xml:space="preserve" text-anchor="middle" x="6384.12" y="-543.95" font-family="Times New Roman,serif" font-size="14.00">IL_0096: nop</text>
</g>
<!-- 151 -->
<g id="node46" class="node">
<title>151</title>
<polygon fill="none" stroke="black" points="6875.88,-301.5 6478.38,-301.5 6474.38,-297.5 6474.38,-265.5 6871.88,-265.5 6875.88,-269.5 6875.88,-301.5"/>
<polyline fill="none" stroke="black" points="6871.88,-297.5 6474.38,-297.5"/>
<polyline fill="none" stroke="black" points="6871.88,-297.5 6871.88,-265.5"/>
<polyline fill="none" stroke="black" points="6871.88,-297.5 6875.88,-301.5"/>
<text xml:space="preserve" text-anchor="middle" x="6675.12" y="-278.45" font-family="Times New Roman,serif" font-size="14.00">IL_0097: call !!0 Windows10CE.InlineIL.IL::Return&lt;System.Int32&gt;()</text>
</g>
<!-- 156 -->
<g id="node47" class="node">
<title>156</title>
<polygon fill="none" stroke="black" points="6729.25,-390 6625,-390 6621,-386 6621,-354 6725.25,-354 6729.25,-358 6729.25,-390"/>
<polyline fill="none" stroke="black" points="6725.25,-386 6621,-386"/>
<polyline fill="none" stroke="black" points="6725.25,-386 6725.25,-354"/>
<polyline fill="none" stroke="black" points="6725.25,-386 6729.25,-390"/>
<text xml:space="preserve" text-anchor="middle" x="6675.12" y="-366.95" font-family="Times New Roman,serif" font-size="14.00">IL_009C: stloc.1</text>
</g>
<!-- 156&#45;&gt;151 -->
<g id="edge31" class="edge">
<title>156&#45;&gt;151</title>
<path fill="none" stroke="black" d="M6675.12,-353.91C6675.12,-342.26 6675.12,-326.55 6675.12,-313.02"/>
<polygon fill="black" stroke="black" points="6678.63,-313.36 6675.13,-303.36 6671.63,-313.36 6678.63,-313.36"/>
<text xml:space="preserve" text-anchor="middle" x="6678.5" y="-322.7" font-family="Times New Roman,serif" font-size="14.00">0</text>
</g>
<!-- 157 -->
<g id="node48" class="node">
<title>157</title>
<polygon fill="none" stroke="black" points="6879.88,-567 6740.38,-567 6736.38,-563 6736.38,-531 6875.88,-531 6879.88,-535 6879.88,-567"/>
<polyline fill="none" stroke="black" points="6875.88,-563 6736.38,-563"/>
<polyline fill="none" stroke="black" points="6875.88,-563 6875.88,-531"/>
<polyline fill="none" stroke="black" points="6875.88,-563 6879.88,-567"/>
<text xml:space="preserve" text-anchor="middle" x="6808.12" y="-543.95" font-family="Times New Roman,serif" font-size="14.00">IL_009D: br.s IL_009F</text>
</g>
<!-- 159 -->
<g id="node49" class="node">
<title>159</title>
<polygon fill="none" stroke="black" points="6729.25,-478.5 6625,-478.5 6621,-474.5 6621,-442.5 6725.25,-442.5 6729.25,-446.5 6729.25,-478.5"/>
<polyline fill="none" stroke="black" points="6725.25,-474.5 6621,-474.5"/>
<polyline fill="none" stroke="black" points="6725.25,-474.5 6725.25,-442.5"/>
<polyline fill="none" stroke="black" points="6725.25,-474.5 6729.25,-478.5"/>
<text xml:space="preserve" text-anchor="middle" x="6675.12" y="-455.45" font-family="Times New Roman,serif" font-size="14.00">IL_009F: ldloc.1</text>
</g>
<!-- 159&#45;&gt;156 -->
<g id="edge32" class="edge">
<title>159&#45;&gt;156</title>
<path fill="none" stroke="gray" stroke-dasharray="5,2" d="M6675.12,-442.41C6675.12,-430.76 6675.12,-415.05 6675.12,-401.52"/>
<polygon fill="gray" stroke="gray" points="6678.63,-401.86 6675.13,-391.86 6671.63,-401.86 6678.63,-401.86"/>
<text xml:space="preserve" text-anchor="middle" x="6686.75" y="-411.2" font-family="Times New Roman,serif" font-size="14.00">V_1</text>
</g>
<!-- 160 -->
<g id="node50" class="node">
<title>160</title>
<polygon fill="none" stroke="black" points="6718.75,-567 6635.5,-567 6631.5,-563 6631.5,-531 6714.75,-531 6718.75,-535 6718.75,-567"/>
<polyline fill="none" stroke="black" points="6714.75,-563 6631.5,-563"/>
<polyline fill="none" stroke="black" points="6714.75,-563 6714.75,-531"/>
<polyline fill="none" stroke="black" points="6714.75,-563 6718.75,-567"/>
<text xml:space="preserve" text-anchor="middle" x="6675.12" y="-543.95" font-family="Times New Roman,serif" font-size="14.00">IL_00A0: ret</text>
</g>
<!-- 160&#45;&gt;159 -->
<g id="edge33" class="edge">
<title>160&#45;&gt;159</title>
<path fill="none" stroke="black" d="M6675.12,-530.91C6675.12,-519.26 6675.12,-503.55 6675.12,-490.02"/>
<polygon fill="black" stroke="black" points="6678.63,-490.36 6675.13,-480.36 6671.63,-490.36 6678.63,-490.36"/>
<text xml:space="preserve" text-anchor="middle" x="6678.5" y="-499.7" font-family="Times New Roman,serif" font-size="14.00">0</text>
</g>
</g>
</svg>
